<?xml version="1.0" encoding="utf-8"?>
<!-- Generator: Adobe Illustrator 24.1.1, SVG Export Plug-In . SVG Version: 6.00 Build 0)  -->
<svg version="1.1" id="Layer_1" xmlns="http://www.w3.org/2000/svg" xmlns:xlink="http://www.w3.org/1999/xlink" x="0px" y="0px"
	 viewBox="0 0 615.06 208.34" style="enable-background:new 0 0 615.06 208.34;" xml:space="preserve">
<style type="text/css">
	.st0{fill:#00AEEF;}
</style>
<g>
	<g>
		<g>
			<path class="st0" d="M124.9,194.81H90.07l-25.13-32.93l-25.05,32.93H5.08l42.47-55.81L4.83,82.77h34.75l25.35,33.34L89.9,82.77
				h34.58l-42.17,56.24L124.9,194.81z M92.1,190.36h24.01l-39.2-51.32l38.87-51.84H91.96l-27.03,36.06L37.55,87.19H13.6l39.36,51.82
				l-39.09,51.35h23.98l27.08-35.57L92.1,190.36z"/>
		</g>
		<g>
			<path class="st0" d="M285.35,195.51h-50.65l-39.6-65.29h-6.81v65.29H144.1V20.37h69.29c7.93,0,15.57,1.46,22.92,4.4
				c7.02,2.81,13.22,6.77,18.61,11.85c5.35,5.07,9.49,10.88,12.43,17.44c3.04,6.8,4.56,13.88,4.56,21.22
				c0,7.36-1.52,14.45-4.56,21.25c-2.94,6.55-7.08,12.37-12.43,17.44c-3.98,3.76-8.41,6.9-13.3,9.43L285.35,195.51z M237.6,190.88
				h39.22l-42.1-69.4l2.34-1.07c5.33-2.47,10.1-5.7,14.3-9.69c4.89-4.65,8.68-9.97,11.37-15.96c2.79-6.25,4.18-12.74,4.18-19.49
				c0-6.73-1.4-13.21-4.18-19.46c-2.69-5.99-6.47-11.31-11.37-15.96c-4.93-4.66-10.61-8.28-17.02-10.84
				C227.63,26.34,220.64,25,213.4,25h-64.3v165.88h34.19v-65.29H198L237.6,190.88z M213.4,93.93h-30.1V56.66h30.1
				c3.54,0,6.77,0.84,9.7,2.52c2.92,1.68,5.26,3.93,7.01,6.75c1.75,2.82,2.62,5.94,2.62,9.35c0,3.43-0.87,6.56-2.62,9.38
				c-1.75,2.82-4.09,5.07-7.01,6.75C220.17,93.09,216.94,93.93,213.4,93.93z M188.29,89.3h25.11c2.62,0,5.02-0.63,7.2-1.89
				c2.18-1.26,3.91-2.95,5.2-5.07c1.29-2.12,1.94-4.47,1.94-7.06c0-2.56-0.65-4.91-1.94-7.03c-1.29-2.12-3.02-3.81-5.2-5.07
				c-2.18-1.26-4.57-1.89-7.2-1.89h-25.11V89.3z"/>
		</g>
		<g>
			<path class="st0" d="M373.39,200.94c-25.07,0-47.69-9.28-63.69-26.14c-15.8-16.64-24.49-39.92-24.49-65.54v-0.5
				c0-24.76,8.84-47.85,24.89-65.03c16.36-17.5,38.76-27.14,63.06-27.14c27.47,0,46.51,7.08,65.71,24.42
				c0.98,0.88,1.11,2.37,0.3,3.41l-22.58,28.98c-0.43,0.55-1.06,0.9-1.75,0.96c-0.7,0.07-1.38-0.16-1.9-0.62
				c-12.11-10.74-22.69-16.95-40.94-16.95c-24.42,0-44.28,23.09-44.28,51.48v0.5c0,30.4,19.7,52.47,46.84,52.47
				c12.13,0,22.9-3.16,31.24-9.15V131.1h-33.57c-1.39,0-2.51-1.13-2.51-2.51V95.64c0-1.39,1.13-2.51,2.51-2.51H443
				c1.39,0,2.51,1.13,2.51,2.51v75.29c0,0.71-0.3,1.39-0.83,1.87C423.97,191.47,399.98,200.94,373.39,200.94z M373.16,21.63
				c-46.5,0-82.92,38.28-82.92,87.14v0.5c0,51.02,34.19,86.65,83.16,86.65c24.96,0,47.52-8.78,67.09-26.1V98.16h-65.74v27.91h33.57
				c1.39,0,2.51,1.13,2.51,2.51v24.77c0,0.78-0.37,1.52-0.99,2c-9.35,7.14-21.55,10.92-35.28,10.92c-30.05,0-51.87-24.18-51.87-57.5
				v-0.5c0-31.16,22.12-56.51,49.31-56.51c18.7,0,30.3,6.25,42.25,16.46l19.5-25.02C418.87,30.19,402.5,21.63,373.16,21.63z"/>
		</g>
		<g>
			<path class="st0" d="M548.41,195.91H468.4V20.78h80.01c7.89,0,15.49,1.42,22.8,4.25c7,2.74,13.19,6.58,18.58,11.54
				c5.39,4.99,9.58,10.72,12.55,17.18c3.08,6.73,4.62,13.73,4.62,21.02c0,7.29-1.54,14.3-4.62,21.05c-2.08,4.53-4.78,8.7-8.09,12.52
				c3.31,3.84,6.01,8.02,8.09,12.55c3.08,6.75,4.62,13.76,4.62,21.05c0,7.29-1.54,14.29-4.62,21.02
				c-2.98,6.46-7.16,12.18-12.55,17.18c-5.39,4.95-11.59,8.8-18.58,11.54C563.9,194.5,556.3,195.91,548.41,195.91z M473.4,191.29
				h75.01c7.22,0,14.17-1.3,20.83-3.9c6.41-2.49,12.08-6,17.02-10.55c4.93-4.55,8.76-9.77,11.49-15.67
				c2.81-6.17,4.22-12.58,4.22-19.23c0-6.67-1.41-13.08-4.22-19.23c-2.17-4.7-5.04-8.98-8.62-12.84l-1.41-1.53l1.41-1.5
				c3.58-3.86,6.45-8.13,8.62-12.84c2.81-6.15,4.22-12.56,4.22-19.23c0-6.65-1.41-13.06-4.22-19.23
				c-2.73-5.9-6.56-11.12-11.49-15.67c-4.93-4.55-10.61-8.08-17.02-10.58c-6.66-2.58-13.61-3.88-20.83-3.88H473.4V191.29z
				 M548.41,159.71h-40.82V56.98h40.82c3.56,0,6.8,0.8,9.73,2.4c2.92,1.6,5.26,3.75,7.01,6.45c1.75,2.7,2.62,5.68,2.62,8.94
				c0,3.16-0.81,6.05-2.44,8.67c-1.62,2.62-3.81,4.74-6.56,6.36c-2.75,1.62-5.85,2.53-9.31,2.75c-3.66,0.23-6.67,1.12-9.03,2.67
				s-4.09,3.5-5.21,5.85c-1.12,2.35-1.69,4.78-1.69,7.29c0,2.49,0.56,4.91,1.69,7.26c1.12,2.35,2.86,4.3,5.21,5.85
				c2.35,1.55,5.36,2.44,9.03,2.67c3.46,0.21,6.56,1.13,9.31,2.75c2.75,1.62,4.93,3.74,6.56,6.36c1.62,2.62,2.44,5.51,2.44,8.67
				c0,3.26-0.88,6.24-2.62,8.93c-1.75,2.7-4.09,4.85-7.01,6.45C555.21,158.91,551.97,159.71,548.41,159.71z M512.59,155.09h35.82
				c2.64,0,5.05-0.59,7.23-1.78s3.91-2.78,5.2-4.77c1.29-2,1.94-4.2,1.94-6.61c0-2.33-0.6-4.47-1.81-6.42
				c-1.21-1.95-2.83-3.52-4.86-4.71c-2.03-1.19-4.33-1.87-6.89-2.02c-6.47-0.37-11.65-2.64-15.52-6.82
				c-3.39-3.82-5.11-8.35-5.15-13.59c0-5.11,1.72-9.65,5.15-13.62c3.87-4.18,9.05-6.46,15.52-6.82c2.56-0.15,4.86-0.83,6.89-2.02
				c2.03-1.19,3.65-2.77,4.86-4.71c1.21-1.95,1.81-4.09,1.81-6.42c0-2.41-0.65-4.61-1.94-6.61c-1.29-2-3.02-3.59-5.2-4.77
				c-2.18-1.19-4.58-1.78-7.23-1.78h-35.82V155.09z"/>
		</g>
	</g>
</g>
</svg>
