<svg id="Letters" xmlns="http://www.w3.org/2000/svg" width="400.464" height="127.188" viewBox="0 0 400.464 127.188">
  <g id="xRGB_Letters" data-name="xRGB Letters" transform="translate(0 6.603)">
    <g id="Group_5" data-name="Group 5" transform="translate(0)">
      <g id="Group_1" data-name="Group 1" transform="translate(0 43.289)">
        <path id="Path_1" data-name="Path 1" d="M83.369,156.057H60.587l-16.438-21.54-16.386,21.54H4.994l27.78-36.506L4.83,82.77H27.56l16.582,21.808L60.475,82.77H83.095L55.511,119.557Zm-21.455-2.911H77.62L51.978,119.577,77.4,85.668H61.823L44.142,109.255,26.233,85.661H10.567l25.746,33.9L10.743,153.146H26.429l17.713-23.267Z" transform="translate(-4.83 -82.77)" fill="#00aeef"/>
      </g>
      <g id="Group_2" data-name="Group 2" transform="translate(91.098 2.473)">
        <path id="Path_2" data-name="Path 2" d="M236.493,134.931H203.363l-25.9-42.707h-4.454v42.707H144.1V20.37h45.323a40,40,0,0,1,14.992,2.878A38.377,38.377,0,0,1,216.589,31a35.715,35.715,0,0,1,8.131,11.408,33.832,33.832,0,0,1,0,27.78,35.787,35.787,0,0,1-8.131,11.408,38.075,38.075,0,0,1-8.7,6.168ZM205.259,131.9h25.654l-27.538-45.4,1.531-.7a34.614,34.614,0,0,0,9.354-6.338,32.9,32.9,0,0,0,7.437-10.44,31.043,31.043,0,0,0,0-25.478,32.8,32.8,0,0,0-7.437-10.44,34.909,34.909,0,0,0-11.133-7.091,36.745,36.745,0,0,0-13.7-2.623H147.371V131.9h22.364V89.2h9.622ZM189.43,68.486H169.741V44.108H189.43a12.524,12.524,0,0,1,6.345,1.648,12.847,12.847,0,0,1,4.585,4.415,11.8,11.8,0,0,1,0,12.252,12.847,12.847,0,0,1-4.585,4.415A12.524,12.524,0,0,1,189.43,68.486Zm-16.425-3.029H189.43a9.244,9.244,0,0,0,4.71-1.236,9.448,9.448,0,0,0,3.4-3.316,9,9,0,0,0,0-9.216,9.448,9.448,0,0,0-3.4-3.316,9.226,9.226,0,0,0-4.71-1.236H173.005Z" transform="translate(-144.1 -20.37)" fill="#00aeef"/>
      </g>
      <g id="Group_3" data-name="Group 3" transform="translate(183.4)">
        <path id="Path_3" data-name="Path 3" d="M342.89,137.176c-16.4,0-31.195-6.07-41.66-17.1-10.335-10.884-16.019-26.112-16.019-42.871V76.88c0-16.2,5.782-31.3,16.281-42.537A55.841,55.841,0,0,1,342.739,16.59c17.968,0,30.423,4.631,42.982,15.973a1.642,1.642,0,0,1,.2,2.231L371.147,53.75a1.644,1.644,0,0,1-2.388.222c-7.921-7.025-14.842-11.087-26.779-11.087-15.973,0-28.964,15.1-28.964,33.674v.327c0,19.885,12.886,34.321,30.639,34.321,7.934,0,14.979-2.067,20.434-5.985V91.492H342.131a1.643,1.643,0,0,1-1.642-1.642V68.3a1.643,1.643,0,0,1,1.642-1.642h46.291a1.643,1.643,0,0,1,1.642,1.642v49.248a1.651,1.651,0,0,1-.543,1.223C375.975,130.981,360.282,137.176,342.89,137.176Zm-.15-117.289c-30.416,0-54.239,25.039-54.239,57v.327c0,33.373,22.364,56.679,54.4,56.679,16.327,0,31.083-5.743,43.884-17.072V69.946h-43V88.2h21.959a1.643,1.643,0,0,1,1.642,1.642v16.2a1.661,1.661,0,0,1-.648,1.308c-6.116,4.67-14.1,7.143-23.077,7.143-19.656,0-33.929-15.816-33.929-37.611v-.327c0-20.382,14.469-36.964,32.254-36.964,12.232,0,19.82,4.088,27.636,10.767L382.372,34C372.639,25.486,361.931,19.887,342.739,19.887Z" transform="translate(-285.21 -16.59)" fill="#00aeef"/>
      </g>
      <g id="Group_4" data-name="Group 4" transform="translate(303.227 2.741)">
        <path id="Path_4" data-name="Path 4" d="M520.736,135.335H468.4V20.78h52.336a40.96,40.96,0,0,1,14.914,2.78A38.467,38.467,0,0,1,547.8,31.108a35.324,35.324,0,0,1,8.209,11.238,32.833,32.833,0,0,1,0,27.519,34.329,34.329,0,0,1-5.292,8.189,34.705,34.705,0,0,1,5.292,8.209,32.833,32.833,0,0,1,0,27.519,35.5,35.5,0,0,1-8.209,11.238,38.659,38.659,0,0,1-12.153,7.548A41.085,41.085,0,0,1,520.736,135.335Zm-49.065-3.022h49.065a37.157,37.157,0,0,0,13.625-2.551,34.929,34.929,0,0,0,11.133-6.9,32.317,32.317,0,0,0,7.516-10.25,30.039,30.039,0,0,0,0-25.157,32.023,32.023,0,0,0-5.638-8.4l-.922-1,.922-.981a31.916,31.916,0,0,0,5.638-8.4,30.039,30.039,0,0,0,0-25.157,32.317,32.317,0,0,0-7.516-10.25,35.024,35.024,0,0,0-11.133-6.921,37.417,37.417,0,0,0-13.625-2.538H471.671Zm49.065-20.657h-26.7v-67.2h26.7a13.054,13.054,0,0,1,6.364,1.57,12.547,12.547,0,0,1,4.585,4.219,10.853,10.853,0,0,1,.118,11.519,12.283,12.283,0,0,1-4.291,4.16,13.492,13.492,0,0,1-6.09,1.8,11.974,11.974,0,0,0-5.907,1.746,9.351,9.351,0,0,0-3.408,3.827A10.969,10.969,0,0,0,511,78.067a10.836,10.836,0,0,0,1.105,4.749,9.4,9.4,0,0,0,3.408,3.827,11.931,11.931,0,0,0,5.907,1.746,13.411,13.411,0,0,1,6.09,1.8,12.338,12.338,0,0,1,4.291,4.16,10.842,10.842,0,0,1-.118,11.512,12.547,12.547,0,0,1-4.585,4.219A12.987,12.987,0,0,1,520.736,111.656Zm-23.43-3.022h23.43a9.7,9.7,0,0,0,4.729-1.164,9.259,9.259,0,0,0,3.4-3.12,8.019,8.019,0,0,0,.085-8.523,9.083,9.083,0,0,0-3.179-3.081,9.935,9.935,0,0,0-4.507-1.321,14.358,14.358,0,0,1-10.152-4.461,13.439,13.439,0,0,1,0-17.8A14.331,14.331,0,0,1,521.265,64.7a9.935,9.935,0,0,0,4.507-1.321,9.14,9.14,0,0,0,3.179-3.081,8.019,8.019,0,0,0-.085-8.523,9.149,9.149,0,0,0-3.4-3.12,9.687,9.687,0,0,0-4.729-1.164h-23.43Z" transform="translate(-468.4 -20.78)" fill="#00aeef"/>
      </g>
    </g>
  </g>
  <g id="xRGB_Letters-2" data-name="xRGB Letters" transform="translate(6.603)">
    <g id="Group_5-2" data-name="Group 5" transform="translate(0)">
      <g id="Group_1-2" data-name="Group 1" transform="translate(0 43.289)">
        <path id="Path_1-2" data-name="Path 1" d="M83.369,156.057H60.587l-16.438-21.54-16.386,21.54H4.994l27.78-36.506L4.83,82.77H27.56l16.582,21.808L60.475,82.77H83.095L55.511,119.557Zm-21.455-2.911H77.62L51.978,119.577,77.4,85.668H61.823L44.142,109.255,26.233,85.661H10.567l25.746,33.9L10.743,153.146H26.429l17.713-23.267Z" transform="translate(-4.83 -82.77)" fill="#d11d66"/>
      </g>
      <g id="Group_2-2" data-name="Group 2" transform="translate(91.098 2.473)">
        <path id="Path_2-2" data-name="Path 2" d="M236.493,134.931H203.363l-25.9-42.707h-4.454v42.707H144.1V20.37h45.323a40,40,0,0,1,14.992,2.878A38.377,38.377,0,0,1,216.589,31a35.715,35.715,0,0,1,8.131,11.408,33.832,33.832,0,0,1,0,27.78,35.787,35.787,0,0,1-8.131,11.408,38.075,38.075,0,0,1-8.7,6.168ZM205.259,131.9h25.654l-27.538-45.4,1.531-.7a34.614,34.614,0,0,0,9.354-6.338,32.9,32.9,0,0,0,7.437-10.44,31.043,31.043,0,0,0,0-25.478,32.8,32.8,0,0,0-7.437-10.44,34.909,34.909,0,0,0-11.133-7.091,36.745,36.745,0,0,0-13.7-2.623H147.371V131.9h22.364V89.2h9.622ZM189.43,68.486H169.741V44.108H189.43a12.524,12.524,0,0,1,6.345,1.648,12.847,12.847,0,0,1,4.585,4.415,11.8,11.8,0,0,1,0,12.252,12.847,12.847,0,0,1-4.585,4.415A12.524,12.524,0,0,1,189.43,68.486Zm-16.425-3.029H189.43a9.244,9.244,0,0,0,4.71-1.236,9.448,9.448,0,0,0,3.4-3.316,9,9,0,0,0,0-9.216,9.448,9.448,0,0,0-3.4-3.316,9.226,9.226,0,0,0-4.71-1.236H173.005Z" transform="translate(-144.1 -20.37)" fill="#d11d66"/>
      </g>
      <g id="Group_3-2" data-name="Group 3" transform="translate(183.4)">
        <path id="Path_3-2" data-name="Path 3" d="M342.89,137.176c-16.4,0-31.195-6.07-41.66-17.1-10.335-10.884-16.019-26.112-16.019-42.871V76.88c0-16.2,5.782-31.3,16.281-42.537A55.841,55.841,0,0,1,342.739,16.59c17.968,0,30.423,4.631,42.982,15.973a1.642,1.642,0,0,1,.2,2.231L371.147,53.75a1.644,1.644,0,0,1-2.388.222c-7.921-7.025-14.842-11.087-26.779-11.087-15.973,0-28.964,15.1-28.964,33.674v.327c0,19.885,12.886,34.321,30.639,34.321,7.934,0,14.979-2.067,20.434-5.985V91.492H342.131a1.643,1.643,0,0,1-1.642-1.642V68.3a1.643,1.643,0,0,1,1.642-1.642h46.291a1.643,1.643,0,0,1,1.642,1.642v49.248a1.651,1.651,0,0,1-.543,1.223C375.975,130.981,360.282,137.176,342.89,137.176Zm-.15-117.289c-30.416,0-54.239,25.039-54.239,57v.327c0,33.373,22.364,56.679,54.4,56.679,16.327,0,31.083-5.743,43.884-17.072V69.946h-43V88.2h21.959a1.643,1.643,0,0,1,1.642,1.642v16.2a1.661,1.661,0,0,1-.648,1.308c-6.116,4.67-14.1,7.143-23.077,7.143-19.656,0-33.929-15.816-33.929-37.611v-.327c0-20.382,14.469-36.964,32.254-36.964,12.232,0,19.82,4.088,27.636,10.767L382.372,34C372.639,25.486,361.931,19.887,342.739,19.887Z" transform="translate(-285.21 -16.59)" fill="#d11d66"/>
      </g>
      <g id="Group_4-2" data-name="Group 4" transform="translate(303.227 2.741)">
        <path id="Path_4-2" data-name="Path 4" d="M520.736,135.335H468.4V20.78h52.336a40.96,40.96,0,0,1,14.914,2.78A38.467,38.467,0,0,1,547.8,31.108a35.324,35.324,0,0,1,8.209,11.238,32.833,32.833,0,0,1,0,27.519,34.329,34.329,0,0,1-5.292,8.189,34.705,34.705,0,0,1,5.292,8.209,32.833,32.833,0,0,1,0,27.519,35.5,35.5,0,0,1-8.209,11.238,38.659,38.659,0,0,1-12.153,7.548A41.085,41.085,0,0,1,520.736,135.335Zm-49.065-3.022h49.065a37.157,37.157,0,0,0,13.625-2.551,34.929,34.929,0,0,0,11.133-6.9,32.317,32.317,0,0,0,7.516-10.25,30.039,30.039,0,0,0,0-25.157,32.023,32.023,0,0,0-5.638-8.4l-.922-1,.922-.981a31.916,31.916,0,0,0,5.638-8.4,30.039,30.039,0,0,0,0-25.157,32.317,32.317,0,0,0-7.516-10.25,35.024,35.024,0,0,0-11.133-6.921,37.417,37.417,0,0,0-13.625-2.538H471.671Zm49.065-20.657h-26.7v-67.2h26.7a13.054,13.054,0,0,1,6.364,1.57,12.547,12.547,0,0,1,4.585,4.219,10.853,10.853,0,0,1,.118,11.519,12.283,12.283,0,0,1-4.291,4.16,13.492,13.492,0,0,1-6.09,1.8,11.974,11.974,0,0,0-5.907,1.746,9.351,9.351,0,0,0-3.408,3.827A10.969,10.969,0,0,0,511,78.067a10.836,10.836,0,0,0,1.105,4.749,9.4,9.4,0,0,0,3.408,3.827,11.931,11.931,0,0,0,5.907,1.746,13.411,13.411,0,0,1,6.09,1.8,12.338,12.338,0,0,1,4.291,4.16,10.842,10.842,0,0,1-.118,11.512,12.547,12.547,0,0,1-4.585,4.219A12.987,12.987,0,0,1,520.736,111.656Zm-23.43-3.022h23.43a9.7,9.7,0,0,0,4.729-1.164,9.259,9.259,0,0,0,3.4-3.12,8.019,8.019,0,0,0,.085-8.523,9.083,9.083,0,0,0-3.179-3.081,9.935,9.935,0,0,0-4.507-1.321,14.358,14.358,0,0,1-10.152-4.461,13.439,13.439,0,0,1,0-17.8A14.331,14.331,0,0,1,521.265,64.7a9.935,9.935,0,0,0,4.507-1.321,9.14,9.14,0,0,0,3.179-3.081,8.019,8.019,0,0,0-.085-8.523,9.149,9.149,0,0,0-3.4-3.12,9.687,9.687,0,0,0-4.729-1.164h-23.43Z" transform="translate(-468.4 -20.78)" fill="#d11d66"/>
      </g>
    </g>
  </g>
</svg>
